<svg xmlns="http://www.w3.org/2000/svg" width="25.238" height="33.651" viewBox="0 0 25.238 33.651">
	<path id="Path_6666" data-name="Path 6666" d="M88.3,248.565H69.371a3.155,3.155,0,0,0-3.155,3.155v1.051H91.454V251.72A3.155,3.155,0,0,0,88.3,248.565Zm-5.51-2.1.464,3.319H74.417l.464-3.319h7.908m.253-2.1H74.628a1.873,1.873,0,0,0-1.8,1.563l-.615,4.4a1.337,1.337,0,0,0,1.359,1.562H84.093a1.337,1.337,0,0,0,1.359-1.562l-.615-4.4a1.873,1.873,0,0,0-1.8-1.563Zm5.783,10.515H68.845a1.891,1.891,0,0,0-1.913,2.1l1.722,18.946a2.354,2.354,0,0,0,2.294,2.094H86.722a2.354,2.354,0,0,0,2.294-2.094l1.722-18.946A1.891,1.891,0,0,0,88.825,254.874ZM74.628,273.8H71.474l-1.052-14.722h4.206Zm6.31,0H76.732V259.081h4.206Zm5.258,0H83.042V259.081h4.206Z" transform="translate(-66.216 -244.359)" fill="#d1d1d1" />
</svg>
